<svg width="20" height="20" viewBox="0 0 20 20" fill="none" xmlns="http://www.w3.org/2000/svg">
<circle cx="10" cy="10" r="10" fill="#002F6C"/>
<path d="M5.5 16.75C5.2875 16.75 5.10938 16.6781 4.96563 16.5344C4.82188 16.3906 4.75 16.2125 4.75 16V14.4625C4.525 14.2125 4.34375 13.9344 4.20625 13.6281C4.06875 13.3219 4 12.9875 4 12.625V5.5C4 4.4625 4.48125 3.70312 5.44375 3.22187C6.40625 2.74062 7.925 2.5 10 2.5C12.15 2.5 13.6875 2.73125 14.6125 3.19375C15.5375 3.65625 16 4.425 16 5.5V12.625C16 12.9875 15.9313 13.3219 15.7938 13.6281C15.6563 13.9344 15.475 14.2125 15.25 14.4625V16C15.25 16.2125 15.1781 16.3906 15.0344 16.5344C14.8906 16.6781 14.7125 16.75 14.5 16.75H13.75C13.5375 16.75 13.3594 16.6781 13.2156 16.5344C13.0719 16.3906 13 16.2125 13 16V15.25H7V16C7 16.2125 6.92813 16.3906 6.78438 16.5344C6.64063 16.6781 6.4625 16.75 6.25 16.75H5.5ZM10.0375 4.75H14.2375H5.8375H10.0375ZM13 10H5.5H14.5H13ZM5.5 8.5H14.5V6.25H5.5V8.5ZM7.375 13C7.6875 13 7.95313 12.8906 8.17188 12.6719C8.39063 12.4531 8.5 12.1875 8.5 11.875C8.5 11.5625 8.39063 11.2969 8.17188 11.0781C7.95313 10.8594 7.6875 10.75 7.375 10.75C7.0625 10.75 6.79688 10.8594 6.57813 11.0781C6.35938 11.2969 6.25 11.5625 6.25 11.875C6.25 12.1875 6.35938 12.4531 6.57813 12.6719C6.79688 12.8906 7.0625 13 7.375 13ZM12.625 13C12.9375 13 13.2031 12.8906 13.4219 12.6719C13.6406 12.4531 13.75 12.1875 13.75 11.875C13.75 11.5625 13.6406 11.2969 13.4219 11.0781C13.2031 10.8594 12.9375 10.75 12.625 10.75C12.3125 10.75 12.0469 10.8594 11.8281 11.0781C11.6094 11.2969 11.5 11.5625 11.5 11.875C11.5 12.1875 11.6094 12.4531 11.8281 12.6719C12.0469 12.8906 12.3125 13 12.625 13ZM5.8375 4.75H14.2375C14.05 4.5375 13.6469 4.35937 13.0281 4.21562C12.4094 4.07187 11.4125 4 10.0375 4C8.7 4 7.72188 4.07812 7.10313 4.23437C6.48438 4.39062 6.0625 4.5625 5.8375 4.75ZM7 13.75H13C13.4125 13.75 13.7656 13.6031 14.0594 13.3094C14.3531 13.0156 14.5 12.6625 14.5 12.25V10H5.5V12.25C5.5 12.6625 5.64688 13.0156 5.94063 13.3094C6.23438 13.6031 6.5875 13.75 7 13.75Z" fill="white"/>
</svg>
