<svg width="20" height="20" viewBox="0 0 20 20" fill="none" xmlns="http://www.w3.org/2000/svg">
<circle cx="10" cy="10" r="10" fill="#67823A"/>
<path d="M10 10C10.4125 10 10.7656 9.85313 11.0594 9.55938C11.3531 9.26563 11.5 8.9125 11.5 8.5C11.5 8.0875 11.3531 7.73438 11.0594 7.44063C10.7656 7.14688 10.4125 7 10 7C9.5875 7 9.23438 7.14688 8.94063 7.44063C8.64688 7.73438 8.5 8.0875 8.5 8.5C8.5 8.9125 8.64688 9.26563 8.94063 9.55938C9.23438 9.85313 9.5875 10 10 10ZM10 15.5125C11.525 14.1125 12.6563 12.8406 13.3938 11.6969C14.1313 10.5531 14.5 9.5375 14.5 8.65C14.5 7.2875 14.0656 6.17188 13.1969 5.30313C12.3281 4.43438 11.2625 4 10 4C8.7375 4 7.67188 4.43438 6.80313 5.30313C5.93438 6.17188 5.5 7.2875 5.5 8.65C5.5 9.5375 5.86875 10.5531 6.60625 11.6969C7.34375 12.8406 8.475 14.1125 10 15.5125ZM10 17.5C7.9875 15.7875 6.48438 14.1969 5.49063 12.7281C4.49688 11.2594 4 9.9 4 8.65C4 6.775 4.60312 5.28125 5.80938 4.16875C7.01563 3.05625 8.4125 2.5 10 2.5C11.5875 2.5 12.9844 3.05625 14.1906 4.16875C15.3969 5.28125 16 6.775 16 8.65C16 9.9 15.5031 11.2594 14.5094 12.7281C13.5156 14.1969 12.0125 15.7875 10 17.5Z" fill="white"/>
</svg>
