<svg width="20" height="20" viewBox="0 0 20 20" fill="none" xmlns="http://www.w3.org/2000/svg">
<circle cx="10" cy="10" r="10" fill="#D02626"/>
<path d="M4 12.6579V5.15789C4 4.46053 4.17187 3.90461 4.51563 3.49013C4.85938 3.07566 5.3125 2.75987 5.875 2.54276C6.4375 2.32566 7.07813 2.18092 7.79688 2.10855C8.51563 2.03618 9.25 2 10 2C10.825 2 11.6031 2.03618 12.3344 2.10855C13.0656 2.18092 13.7031 2.32566 14.2469 2.54276C14.7906 2.75987 15.2188 3.07566 15.5313 3.49013C15.8438 3.90461 16 4.46053 16 5.15789V12.6579C16 13.4342 15.7469 14.0888 15.2406 14.6217C14.7344 15.1546 14.1125 15.4211 13.375 15.4211L14.5 16.6053V17H13L11.5 15.4211H8.5L7 17H5.5V16.6053L6.625 15.4211C5.8875 15.4211 5.26563 15.1546 4.75938 14.6217C4.25313 14.0888 4 13.4342 4 12.6579ZM10 3.57895C8.675 3.57895 7.70625 3.66118 7.09375 3.82566C6.48125 3.99013 6.0625 4.17105 5.8375 4.36842H14.2375C14.05 4.14474 13.6469 3.95724 13.0281 3.80592C12.4094 3.65461 11.4 3.57895 10 3.57895ZM5.5 8.31579H9.25V5.94737H5.5V8.31579ZM13.375 9.89474H5.5H14.5H13.375ZM10.75 8.31579H14.5V5.94737H10.75V8.31579ZM7.375 13.0526C7.7 13.0526 7.96875 12.9408 8.18125 12.7171C8.39375 12.4934 8.5 12.2105 8.5 11.8684C8.5 11.5263 8.39375 11.2434 8.18125 11.0197C7.96875 10.7961 7.7 10.6842 7.375 10.6842C7.05 10.6842 6.78125 10.7961 6.56875 11.0197C6.35625 11.2434 6.25 11.5263 6.25 11.8684C6.25 12.2105 6.35625 12.4934 6.56875 12.7171C6.78125 12.9408 7.05 13.0526 7.375 13.0526ZM12.625 13.0526C12.95 13.0526 13.2188 12.9408 13.4313 12.7171C13.6438 12.4934 13.75 12.2105 13.75 11.8684C13.75 11.5263 13.6438 11.2434 13.4313 11.0197C13.2188 10.7961 12.95 10.6842 12.625 10.6842C12.3 10.6842 12.0313 10.7961 11.8188 11.0197C11.6063 11.2434 11.5 11.5263 11.5 11.8684C11.5 12.2105 11.6063 12.4934 11.8188 12.7171C12.0313 12.9408 12.3 13.0526 12.625 13.0526ZM6.625 13.8421H13.375C13.7 13.8421 13.9688 13.7303 14.1813 13.5066C14.3938 13.2829 14.5 13 14.5 12.6579V9.89474H5.5V12.6579C5.5 13 5.60625 13.2829 5.81875 13.5066C6.03125 13.7303 6.3 13.8421 6.625 13.8421ZM10 4.36842H14.2375H5.8375H10Z" fill="white"/>
</svg>
