<svg width="71" height="71" viewBox="0 0 71 71" fill="none" xmlns="http://www.w3.org/2000/svg">
<circle cx="35.5" cy="35.5" r="34" stroke="#002F6C" stroke-width="3"/>
<path d="M10.1436 28.053V20.4459C10.1436 19.7385 10.3179 19.1747 10.6665 18.7543C11.0152 18.3339 11.4748 18.0136 12.0453 17.7934C12.6159 17.5732 13.2657 17.4264 13.9947 17.353C14.7237 17.2796 15.4686 17.2429 16.2293 17.2429C17.0661 17.2429 17.8553 17.2796 18.597 17.353C19.3387 17.4264 19.9853 17.5732 20.5368 17.7934C21.0883 18.0136 21.5226 18.3339 21.8395 18.7543C22.1565 19.1747 22.315 19.7385 22.315 20.4459V28.053C22.315 28.8404 22.0582 29.5044 21.5448 30.0449C21.0313 30.5854 20.4005 30.8556 19.6525 30.8556L20.7936 32.0568V32.4571H19.2721L17.7507 30.8556H14.7078L13.1864 32.4571H11.665V32.0568L12.8061 30.8556C12.058 30.8556 11.4273 30.5854 10.9138 30.0449C10.4003 29.5044 10.1436 28.8404 10.1436 28.053ZM16.2293 18.8444C14.8853 18.8444 13.9028 18.9278 13.2815 19.0946C12.6603 19.2614 12.2355 19.4449 12.0073 19.6451H20.5273C20.3371 19.4182 19.9282 19.228 19.3007 19.0746C18.6731 18.9211 17.6493 18.8444 16.2293 18.8444ZM11.665 23.6489H15.4686V21.2466H11.665V23.6489ZM19.6525 25.2504H11.665H20.7936H19.6525ZM16.99 23.6489H20.7936V21.2466H16.99V23.6489ZM13.5668 28.4534C13.8964 28.4534 14.169 28.3399 14.3845 28.1131C14.6001 27.8862 14.7078 27.5992 14.7078 27.2522C14.7078 26.9053 14.6001 26.6183 14.3845 26.3914C14.169 26.1646 13.8964 26.0511 13.5668 26.0511C13.2371 26.0511 12.9645 26.1646 12.749 26.3914C12.5335 26.6183 12.4257 26.9053 12.4257 27.2522C12.4257 27.5992 12.5335 27.8862 12.749 28.1131C12.9645 28.3399 13.2371 28.4534 13.5668 28.4534ZM18.8918 28.4534C19.2214 28.4534 19.494 28.3399 19.7095 28.1131C19.9251 27.8862 20.0328 27.5992 20.0328 27.2522C20.0328 26.9053 19.9251 26.6183 19.7095 26.3914C19.494 26.1646 19.2214 26.0511 18.8918 26.0511C18.5621 26.0511 18.2895 26.1646 18.074 26.3914C17.8585 26.6183 17.7507 26.9053 17.7507 27.2522C17.7507 27.5992 17.8585 27.8862 18.074 28.1131C18.2895 28.3399 18.5621 28.4534 18.8918 28.4534ZM12.8061 29.2541H19.6525C19.9821 29.2541 20.2547 29.1407 20.4703 28.9138C20.6858 28.6869 20.7936 28.4 20.7936 28.053V25.2504H11.665V28.053C11.665 28.4 11.7728 28.6869 11.9883 28.9138C12.2038 29.1407 12.4764 29.2541 12.8061 29.2541ZM16.2293 19.6451H20.5273H12.0073H16.2293Z" fill="#002F6C"/>
<rect x="10.1436" y="37.5291" width="50.7143" height="5.07143" fill="#002F6C"/>
<rect x="10.1436" y="46.6578" width="50.7143" height="5.07143" fill="#002F6C"/>
<path d="M27.8926 31.9502V21.9468C27.8926 20.8691 28.1715 19.9341 28.7294 19.1417C29.2872 18.3493 30.0733 17.7502 31.0876 17.3445C31.7722 17.0782 32.5012 16.9103 33.2746 16.8405C34.048 16.7708 34.7897 16.7359 35.4997 16.7359C36.2097 16.7359 36.9514 16.7708 37.7248 16.8405C38.4982 16.9103 39.2272 17.0782 39.9119 17.3445C40.9262 17.7502 41.7122 18.3493 42.2701 19.1417C42.8279 19.9341 43.1069 20.8691 43.1069 21.9468V31.9502H27.8926ZM33.2936 30.4288H37.6678L36.5267 29.2877H34.4347L33.2936 30.4288ZM32.0765 25.1038H38.9229V22.0609H32.0765V25.1038ZM38.1622 27.7663C38.3778 27.7663 38.5584 27.6934 38.7042 27.5476C38.85 27.4018 38.9229 27.2211 38.9229 27.0056C38.9229 26.79 38.85 26.6094 38.7042 26.4636C38.5584 26.3178 38.3778 26.2449 38.1622 26.2449C37.9467 26.2449 37.766 26.3178 37.6202 26.4636C37.4744 26.6094 37.4015 26.79 37.4015 27.0056C37.4015 27.2211 37.4744 27.4018 37.6202 27.5476C37.766 27.6934 37.9467 27.7663 38.1622 27.7663ZM32.8372 27.7663C33.0528 27.7663 33.2334 27.6934 33.3792 27.5476C33.525 27.4018 33.5979 27.2211 33.5979 27.0056C33.5979 26.79 33.525 26.6094 33.3792 26.4636C33.2334 26.3178 33.0528 26.2449 32.8372 26.2449C32.6217 26.2449 32.441 26.3178 32.2952 26.4636C32.1494 26.6094 32.0765 26.79 32.0765 27.0056C32.0765 27.2211 32.1494 27.4018 32.2952 27.5476C32.441 27.6934 32.6217 27.7663 32.8372 27.7663ZM29.414 30.4288H32.0765V30.0484L32.8753 29.2497C32.3174 29.1736 31.8546 28.9232 31.487 28.4985C31.1193 28.0737 30.9354 27.5761 30.9354 27.0056V22.0609C30.9354 21.072 31.4077 20.4444 32.3523 20.1782C33.2968 19.9119 34.346 19.7788 35.4997 19.7788C36.7676 19.7788 37.8453 19.9119 38.7328 20.1782C39.6203 20.4444 40.064 21.072 40.064 22.0609V27.0056C40.064 27.5761 39.8802 28.0737 39.5125 28.4985C39.1448 28.9232 38.682 29.1736 38.1242 29.2497L38.9229 30.0484V30.4288H41.5854V21.9468C41.5854 21.1861 41.3984 20.5363 41.0244 19.9975C40.6504 19.4586 40.0894 19.0434 39.3413 18.7518C38.7835 18.5363 38.1654 18.4 37.4871 18.3429C36.8088 18.2859 36.1463 18.2574 35.4997 18.2574C34.8531 18.2574 34.1907 18.2859 33.5124 18.3429C32.8341 18.4 32.216 18.5363 31.6581 18.7518C30.9101 19.0434 30.3491 19.4586 29.975 19.9975C29.601 20.5363 29.414 21.1861 29.414 21.9468V30.4288Z" fill="#002F6C"/>
<g clip-path="url(#clip0_641_48)">
<path d="M48.6875 28.527V21.3002C48.6875 20.0704 49.2263 19.2653 50.304 18.8849C51.3817 18.5046 52.6179 18.2954 54.0125 18.2574L54.583 17.1163H50.9696V15.9752H58.5768V17.1163H56.1045L55.5339 18.2574C57.0427 18.2954 58.3074 18.5014 59.328 18.8754C60.3486 19.2495 60.8589 20.0577 60.8589 21.3002V28.527C60.8589 29.275 60.6022 29.9058 60.0887 30.4193C59.5752 30.9328 58.9445 31.1895 58.1964 31.1895L59.3375 32.3306V32.7109H57.8161L56.2946 31.1895H53.2518L51.7304 32.7109H50.2089V32.3306L51.35 31.1895C50.602 31.1895 49.9712 30.9328 49.4577 30.4193C48.9442 29.9058 48.6875 29.275 48.6875 28.527ZM58.1964 25.8645H50.2089H59.3375H58.1964ZM54.7732 28.9074C55.0902 28.9074 55.3596 28.7964 55.5815 28.5745C55.8033 28.3527 55.9143 28.0832 55.9143 27.7663C55.9143 27.4493 55.8033 27.1799 55.5815 26.958C55.3596 26.7361 55.0902 26.6252 54.7732 26.6252C54.4562 26.6252 54.1868 26.7361 53.965 26.958C53.7431 27.1799 53.6321 27.4493 53.6321 27.7663C53.6321 28.0832 53.7431 28.3527 53.965 28.5745C54.1868 28.7964 54.4562 28.9074 54.7732 28.9074ZM54.7352 20.5395H59.0712H50.5132H54.7352ZM50.2089 24.3431H59.3375V22.0609H50.2089V24.3431ZM51.35 29.6681H58.1964C58.5261 29.6681 58.7987 29.5603 59.0142 29.3448C59.2297 29.1292 59.3375 28.8566 59.3375 28.527V25.8645H50.2089V28.527C50.2089 28.8566 50.3167 29.1292 50.5322 29.3448C50.7478 29.5603 51.0204 29.6681 51.35 29.6681ZM54.7352 19.7788C53.0362 19.7788 51.9459 19.8707 51.4641 20.0545C50.9823 20.2384 50.6654 20.4 50.5132 20.5395H59.0712C58.9191 20.362 58.5895 20.1908 58.0823 20.026C57.5752 19.8612 56.4595 19.7788 54.7352 19.7788Z" fill="#002F6C"/>
</g>
<defs>
<clipPath id="clip0_641_48">
<rect width="18.2571" height="18.2571" fill="white" transform="translate(45.6445 15.2145)"/>
</clipPath>
</defs>
</svg>
