<svg width="54" height="34" viewBox="0 0 54 34" fill="none" xmlns="http://www.w3.org/2000/svg">
<path d="M0.143555 13.053V5.44586C0.143555 4.73853 0.317885 4.17466 0.666546 3.75427C1.01521 3.33387 1.4748 3.01357 2.04534 2.79337C2.61588 2.57316 3.26565 2.42635 3.99467 2.35295C4.72369 2.27955 5.46855 2.24285 6.22927 2.24285C7.06605 2.24285 7.8553 2.27955 8.59699 2.35295C9.33869 2.42635 9.9853 2.57316 10.5368 2.79337C11.0883 3.01357 11.5226 3.33387 11.8395 3.75427C12.1565 4.17466 12.315 4.73853 12.315 5.44586V13.053C12.315 13.8404 12.0582 14.5044 11.5448 15.0449C11.0313 15.5854 10.4005 15.8556 9.65248 15.8556L10.7936 17.0568V17.4571H9.27213L7.7507 15.8556H4.70784L3.18641 17.4571H1.66498V17.0568L2.80605 15.8556C2.05802 15.8556 1.42726 15.5854 0.913778 15.0449C0.400296 14.5044 0.143555 13.8404 0.143555 13.053ZM6.22927 3.84435C4.88534 3.84435 3.90275 3.92776 3.2815 4.09459C2.66025 4.26141 2.23552 4.44492 2.0073 4.6451H10.5273C10.3371 4.41822 9.92824 4.22805 9.30065 4.07457C8.67306 3.92109 7.64927 3.84435 6.22927 3.84435ZM1.66498 8.64886H5.46855V6.24661H1.66498V8.64886ZM9.65248 10.2504H1.66498H10.7936H9.65248ZM6.98998 8.64886H10.7936V6.24661H6.98998V8.64886ZM3.56677 13.4534C3.89641 13.4534 4.169 13.3399 4.38454 13.1131C4.60007 12.8862 4.70784 12.5992 4.70784 12.2522C4.70784 11.9053 4.60007 11.6183 4.38454 11.3914C4.169 11.1646 3.89641 11.0511 3.56677 11.0511C3.23713 11.0511 2.96454 11.1646 2.749 11.3914C2.53347 11.6183 2.4257 11.9053 2.4257 12.2522C2.4257 12.5992 2.53347 12.8862 2.749 13.1131C2.96454 13.3399 3.23713 13.4534 3.56677 13.4534ZM8.89177 13.4534C9.22141 13.4534 9.494 13.3399 9.70954 13.1131C9.92507 12.8862 10.0328 12.5992 10.0328 12.2522C10.0328 11.9053 9.92507 11.6183 9.70954 11.3914C9.494 11.1646 9.22141 11.0511 8.89177 11.0511C8.56213 11.0511 8.28954 11.1646 8.074 11.3914C7.85847 11.6183 7.7507 11.9053 7.7507 12.2522C7.7507 12.5992 7.85847 12.8862 8.074 13.1131C8.28954 13.3399 8.56213 13.4534 8.89177 13.4534ZM2.80605 14.2541H9.65248C9.98213 14.2541 10.2547 14.1407 10.4703 13.9138C10.6858 13.6869 10.7936 13.4 10.7936 13.053V10.2504H1.66498V13.053C1.66498 13.4 1.77275 13.6869 1.98829 13.9138C2.20382 14.1407 2.47641 14.2541 2.80605 14.2541ZM6.22927 4.6451H10.5273H2.0073H6.22927Z" fill="#002F6C"/>
<rect x="0.143555" y="22.5291" width="50.7143" height="4" fill="#002F6C"/>
<rect x="0.143555" y="29.6578" width="50.7143" height="4" fill="#002F6C"/>
<path d="M17.8926 16.9502V6.94681C17.8926 5.86914 18.1715 4.93409 18.7294 4.14168C19.2872 3.34927 20.0733 2.75021 21.0876 2.34449C21.7722 2.07824 22.5012 1.91025 23.2746 1.84052C24.048 1.77079 24.7897 1.73592 25.4997 1.73592C26.2097 1.73592 26.9514 1.77079 27.7248 1.84052C28.4982 1.91025 29.2272 2.07824 29.9119 2.34449C30.9262 2.75021 31.7122 3.34927 32.2701 4.14168C32.8279 4.93409 33.1069 5.86914 33.1069 6.94681V16.9502H17.8926ZM23.2936 15.4288H27.6678L26.5267 14.2877H24.4347L23.2936 15.4288ZM22.0765 10.1038H28.9229V7.06092H22.0765V10.1038ZM28.1622 12.7663C28.3778 12.7663 28.5584 12.6934 28.7042 12.5476C28.85 12.4018 28.9229 12.2211 28.9229 12.0056C28.9229 11.79 28.85 11.6094 28.7042 11.4636C28.5584 11.3178 28.3778 11.2449 28.1622 11.2449C27.9467 11.2449 27.766 11.3178 27.6202 11.4636C27.4744 11.6094 27.4015 11.79 27.4015 12.0056C27.4015 12.2211 27.4744 12.4018 27.6202 12.5476C27.766 12.6934 27.9467 12.7663 28.1622 12.7663ZM22.8372 12.7663C23.0528 12.7663 23.2334 12.6934 23.3792 12.5476C23.525 12.4018 23.5979 12.2211 23.5979 12.0056C23.5979 11.79 23.525 11.6094 23.3792 11.4636C23.2334 11.3178 23.0528 11.2449 22.8372 11.2449C22.6217 11.2449 22.441 11.3178 22.2952 11.4636C22.1494 11.6094 22.0765 11.79 22.0765 12.0056C22.0765 12.2211 22.1494 12.4018 22.2952 12.5476C22.441 12.6934 22.6217 12.7663 22.8372 12.7663ZM19.414 15.4288H22.0765V15.0484L22.8753 14.2497C22.3174 14.1736 21.8546 13.9232 21.487 13.4985C21.1193 13.0737 20.9354 12.5761 20.9354 12.0056V7.06092C20.9354 6.07199 21.4077 5.4444 22.3523 5.17815C23.2968 4.9119 24.346 4.77878 25.4997 4.77878C26.7676 4.77878 27.8453 4.9119 28.7328 5.17815C29.6203 5.4444 30.064 6.07199 30.064 7.06092V12.0056C30.064 12.5761 29.8802 13.0737 29.5125 13.4985C29.1448 13.9232 28.682 14.1736 28.1242 14.2497L28.9229 15.0484V15.4288H31.5854V6.94681C31.5854 6.1861 31.3984 5.53632 31.0244 4.99748C30.6504 4.45864 30.0894 4.04342 29.3413 3.75181C28.7835 3.53628 28.1654 3.39998 27.4871 3.34293C26.8088 3.28588 26.1463 3.25735 25.4997 3.25735C24.8531 3.25735 24.1907 3.28588 23.5124 3.34293C22.8341 3.39998 22.216 3.53628 21.6581 3.75181C20.9101 4.04342 20.3491 4.45864 19.975 4.99748C19.601 5.53632 19.414 6.1861 19.414 6.94681V15.4288Z" fill="#002F6C"/>
<g clip-path="url(#clip0_660_25)">
<path d="M38.6875 13.527V6.30021C38.6875 5.07039 39.2263 4.2653 40.304 3.88494C41.3817 3.50458 42.6179 3.29539 44.0125 3.25735L44.583 2.11628H40.9696V0.975207H48.5768V2.11628H46.1045L45.5339 3.25735C47.0427 3.29539 48.3074 3.50141 49.328 3.87543C50.3486 4.24945 50.8589 5.05771 50.8589 6.30021V13.527C50.8589 14.275 50.6022 14.9058 50.0887 15.4193C49.5752 15.9328 48.9445 16.1895 48.1964 16.1895L49.3375 17.3306V17.7109H47.8161L46.2946 16.1895H43.2518L41.7304 17.7109H40.2089V17.3306L41.35 16.1895C40.602 16.1895 39.9712 15.9328 39.4577 15.4193C38.9442 14.9058 38.6875 14.275 38.6875 13.527ZM48.1964 10.8645H40.2089H49.3375H48.1964ZM44.7732 13.9073C45.0902 13.9073 45.3596 13.7964 45.5815 13.5745C45.8033 13.3527 45.9143 13.0832 45.9143 12.7663C45.9143 12.4493 45.8033 12.1799 45.5815 11.958C45.3596 11.7361 45.0902 11.6252 44.7732 11.6252C44.4562 11.6252 44.1868 11.7361 43.965 11.958C43.7431 12.1799 43.6321 12.4493 43.6321 12.7663C43.6321 13.0832 43.7431 13.3527 43.965 13.5745C44.1868 13.7964 44.4562 13.9073 44.7732 13.9073ZM44.7352 5.53949H49.0712H40.5132H44.7352ZM40.2089 9.34306H49.3375V7.06092H40.2089V9.34306ZM41.35 14.6681H48.1964C48.5261 14.6681 48.7987 14.5603 49.0142 14.3448C49.2297 14.1292 49.3375 13.8566 49.3375 13.527V10.8645H40.2089V13.527C40.2089 13.8566 40.3167 14.1292 40.5322 14.3448C40.7478 14.5603 41.0204 14.6681 41.35 14.6681ZM44.7352 4.77878C43.0362 4.77878 41.9459 4.8707 41.4641 5.05454C40.9823 5.23838 40.6654 5.40003 40.5132 5.53949H49.0712C48.9191 5.36199 48.5895 5.19083 48.0823 5.02601C47.5752 4.86119 46.4595 4.77878 44.7352 4.77878Z" fill="#002F6C"/>
</g>
<defs>
<clipPath id="clip0_660_25">
<rect width="18.2571" height="18.2571" fill="white" transform="translate(35.6445 0.214493)"/>
</clipPath>
</defs>
</svg>
